<svg width="16" height="16" viewBox="0 0 16 16" fill="none" xmlns="http://www.w3.org/2000/svg">
<path d="M6.95312 2.09058L7.64687 1.39683C7.94062 1.10308 8.41563 1.10308 8.70625 1.39683L14.7812 7.4687C15.075 7.76245 15.075 8.23745 14.7812 8.52808L8.70625 14.6031C8.4125 14.8968 7.9375 14.8968 7.64687 14.6031L6.95312 13.9093C6.65625 13.6125 6.6625 13.1281 6.96562 12.8375L10.7312 9.24995H1.75C1.33437 9.24995 1 8.91558 1 8.49995V7.49995C1 7.08433 1.33437 6.74995 1.75 6.74995H10.7312L6.96562 3.16245C6.65937 2.87183 6.65312 2.38745 6.95312 2.09058Z" fill="#FFC70A"/>
</svg>
