<svg width="872" height="114" viewBox="0 0 872 114" fill="none" xmlns="http://www.w3.org/2000/svg">
<path d="M872 0H0V114H872V0Z" fill="url(#paint0_linear_120_780)"/>
<path d="M604.526 114L597.375 113.701L457.942 109.054L417.235 109.502L397.772 107.555L378.886 108.129L338.454 111.834L330.103 112.231L301.647 112.719L273.17 113.064L228.783 113.104L209.462 109.204L138.147 105.326L53.3741 104.838L0 105.033V114H604.526Z" fill="#BF765C"/>
<path d="M142.489 74.7442L90.7708 71.4355L21.4998 73.5667L0 75.8012V83.3146L16.4197 82.6598L9.74459 80.9308L53.9705 79.2132L139.132 77.2947L186.575 79.8566L142.489 74.7442Z" fill="#BF765C"/>
<path d="M872 57.2929L817.44 56.2187L743.692 55.1445L695.203 56.2474L695.753 61.2564L623.547 64.6742L592.128 61.7676L589.219 60.6992L573.383 59.8031L522.998 60.1535L469.396 61.9687L454.631 60.2167L457.171 59.177L375.636 60.3603L305.152 67.0351L313.63 69.103L258.359 69.6889L352.702 70.7114L344.197 68.3333L365.268 67.7933L437.595 66.1447L568.665 65.151L566.185 65.6852L606.396 68.0805L605.264 67.7818L657.237 65.375L700.485 62.4454L719.665 61.2392L717.769 61.5436L748.229 62.5891L800.524 63.3645L872 66.9604V57.2929Z" fill="#BF765C"/>
<path d="M872 99.823L779.835 97.9618L719.243 94.2913L718.338 88.076L693.36 85.3877L645.509 84.6582L582.598 87.6222L559.469 89.1961L566.902 91.0228L540.041 91.58L520.458 93.5388L545.362 93.0563L634.611 93.1711L669.032 93.1597L695.036 93.7513L696.597 99.8804L719.042 101.15L790.116 102.109L871.377 105.682L872 105.653V99.823Z" fill="#BF765C"/>
<path d="M304.884 49.3942L238.032 51.5368L183.834 49.1357L153.36 50.0146L153.28 50.7614L112.197 51.6172L111.935 50.2961L66.1881 52.8178L74.9342 54.1849L4.1954 53.9494L0 53.6507V56.2241L1.0321 56.2126L48.9441 57.0858L144.044 53.6679L231.464 54.9546L264.947 54.7938L310.031 54.811L315.875 54.5526L329.52 53.6794L353.432 51.152L304.884 49.3942Z" fill="#BF765C"/>
<path d="M872 47.0283L854.722 48.7918L868.931 50.4289L872 50.607V47.0283Z" fill="#BF765C"/>
<path d="M400.567 93.4123L328.267 96.4798L304.361 95.8709L303.925 94.0097L293.316 92.1831L206.473 91.2008L171.576 90.9653L136.21 90.8849L121.801 90.6723L120.621 85.4336L92.2587 88.0185L97.2985 95.0839L102.211 98.1743L126.572 96.9106L162.823 97.1001L202.264 97.6631L213.577 94.8656L235.318 93.2457L262.983 95.2218L259.525 101.098L291.781 102.603L314.508 101.293L295.508 97.2954L317.57 99.8688L371.809 100.409L411.819 96.7899L439.867 94.9288L451.207 93.4123L427.562 90.6206L382.237 88.8169L400.567 93.4123Z" fill="#BF765C"/>
<defs>
<linearGradient id="paint0_linear_120_780" x1="436" y1="-7.26588" x2="436" y2="151.606" gradientUnits="userSpaceOnUse">
<stop stop-color="#FFC994"/>
<stop offset="0.1558" stop-color="#FCC38F"/>
<stop offset="0.3728" stop-color="#F3B080"/>
<stop offset="0.6259" stop-color="#E59367"/>
<stop offset="0.9041" stop-color="#D16A45"/>
<stop offset="1" stop-color="#C95A38"/>
</linearGradient>
</defs>
</svg>
