<svg width="179" height="139" viewBox="0 0 179 139" fill="none" xmlns="http://www.w3.org/2000/svg">
<g clip-path="url(#clip0_119_127)">
<path d="M63.5317 118.908C63.5317 118.908 64.116 68.9212 30.6946 38.9337C15.5363 25.3347 -19.5121 42.8688 14.1156 65.9467C28.0135 75.495 49.1984 83.9785 63.5317 118.908Z" fill="#3285FF"/>
<path d="M18.7215 48.4243C18.7215 48.4243 66.9001 80.4371 64.2535 137.299" stroke="#3081F8" stroke-width="1.3664" stroke-miterlimit="10"/>
<path d="M74.6683 117.172C74.6683 117.172 76.3755 62.3474 144.994 35.2534C168.642 25.9135 203.118 59.9748 154.114 73.979C133.869 79.7658 105.374 81.3977 74.6683 117.172Z" fill="#D5D5D5"/>
<path d="M155.501 51.3062C155.501 51.3062 85.7248 70.1018 66.6137 138.745" stroke="#D5D5D5" stroke-width="1.7113" stroke-miterlimit="10"/>
<path d="M124.016 3.00894C119.57 6.00653 118.195 11.8281 118.195 11.8281C118.195 11.8281 124.038 12.7887 128.495 9.79112C132.952 6.79354 135.553 2.84691 134.316 0.971972C133.078 -0.902966 128.473 0.0113557 124.016 3.00894Z" fill="#D5D5D5"/>
<path d="M113.807 15.8557C110.06 17.3835 108.158 21.4805 108.158 21.4805C108.158 21.4805 112.34 23.1009 116.087 21.5731C119.834 20.0454 122.366 17.5223 121.736 15.9483C121.105 14.3743 117.554 14.328 113.807 15.8557Z" fill="#D5D5D5"/>
<path d="M109.877 11.041C108.33 14.814 109.888 19.05 109.888 19.05C109.888 19.05 113.967 17.175 115.514 13.402C117.061 9.62899 117.061 6.04115 115.503 5.39302C113.956 4.73332 111.435 7.26796 109.877 11.041Z" fill="#D5D5D5"/>
<path d="M107.528 24.3046C102.773 25.4156 99.7601 29.9525 99.7601 29.9525C99.7601 29.9525 104.446 32.6723 109.201 31.5497C113.956 30.4386 117.428 27.904 116.969 25.9017C116.5 23.8995 112.272 23.1819 107.528 24.3046Z" fill="#D5D5D5"/>
<path d="M99.1758 19.3049C97.8124 24.0385 100.241 28.911 100.241 28.911C100.241 28.911 104.882 26.1102 106.245 21.3881C107.609 16.6545 107.139 12.3607 105.18 11.782C103.232 11.2033 100.551 14.5712 99.1758 19.3049Z" fill="#D5D5D5"/>
<path d="M102.991 34.2232C98.1102 34.2116 94.1459 37.9152 94.1459 37.9152C94.1459 37.9152 98.0873 41.6419 102.968 41.6651C107.849 41.6766 111.813 40.0332 111.813 37.973C111.825 35.9129 107.872 34.2347 102.991 34.2232Z" fill="#D5D5D5"/>
<path d="M97.0103 45.1837C91.8087 44.9406 87.409 48.7021 87.409 48.7021C87.409 48.7021 91.442 52.8686 96.6437 53.1116C101.845 53.3547 106.142 51.7807 106.245 49.5932C106.348 47.3942 102.212 45.4267 97.0103 45.1837Z" fill="#D5D5D5"/>
<path d="M91.5681 56.1321C86.4237 55.3566 81.6574 58.6436 81.6574 58.6436C81.6574 58.6436 85.255 63.2036 90.3994 63.979C95.5438 64.7545 99.9893 63.6318 100.31 61.4676C100.631 59.3033 96.7125 56.9075 91.5681 56.1321Z" fill="#D5D5D5"/>
<path d="M85.4039 68.6087C80.2022 68.7013 76.0431 72.7405 76.0431 72.7405C76.0431 72.7405 80.3282 76.6409 85.5414 76.5483C90.7431 76.4557 94.9365 74.6155 94.9021 72.4165C94.8563 70.2291 90.6056 68.5277 85.4039 68.6087Z" fill="#D5D5D5"/>
<path d="M94.4897 27.8462C96.4146 32.3715 94.5929 37.5102 94.5929 37.5102C94.5929 37.5102 89.6547 35.2996 87.7298 30.7743C85.805 26.249 85.7591 21.9204 87.6267 21.1103C89.4943 20.3001 92.5649 23.3093 94.4897 27.8462Z" fill="#D5D5D5"/>
<path d="M85.4842 38.7023C88.4287 43.0424 87.5809 48.7945 87.5809 48.7945C87.5809 48.7945 81.9553 47.5214 79.0107 43.1928C76.0661 38.8527 75.1266 34.339 76.914 33.1006C78.7013 31.8622 82.5396 34.3621 85.4842 38.7023Z" fill="#D5D5D5"/>
<path d="M79.1367 49.1534C82.5052 53.1695 82.2416 58.9794 82.2416 58.9794C82.2416 58.9794 76.5129 58.2966 73.1444 54.2805C69.7759 50.2645 68.3896 45.8665 70.0394 44.4545C71.7008 43.0425 75.7682 45.1373 79.1367 49.1534Z" fill="#D5D5D5"/>
<path d="M74.8974 62.7058C77.567 67.2196 76.3639 72.9138 76.3639 72.9138C76.3639 72.9138 70.83 71.2935 68.1604 66.7682C65.4908 62.2545 64.8377 57.6829 66.6938 56.5602C68.55 55.4376 72.2278 58.1921 74.8974 62.7058Z" fill="#D5D5D5"/>
<path d="M80.1335 81.71C75.0578 82.879 71.8154 87.6936 71.8154 87.6936C71.8154 87.6936 76.7994 90.6102 81.8865 89.4413C86.9621 88.2723 90.6858 85.5872 90.2046 83.4577C89.7119 81.3281 85.2091 80.5411 80.1335 81.71Z" fill="#D5D5D5"/>
<path d="M68.6416 78.1223C72.182 81.9879 72.1591 87.8095 72.1591 87.8095C72.1591 87.8095 66.4074 87.3697 62.8785 83.5157C59.3382 79.6501 57.7685 75.3215 59.3611 73.8285C60.9537 72.3355 65.1127 74.2567 68.6416 78.1223Z" fill="#D5D5D5"/>
<path d="M76.8222 95.9454C71.8612 97.5426 69.0426 102.623 69.0426 102.623C69.0426 102.623 74.2558 105.1 79.2169 103.503C84.1779 101.906 87.661 98.9083 86.9965 96.825C86.3319 94.7302 81.7719 94.3367 76.8222 95.9454Z" fill="#D5D5D5"/>
<path d="M65.0669 93.3533C68.9166 96.8948 69.3864 102.705 69.3864 102.705C69.3864 102.705 63.6232 102.763 59.7735 99.2211C55.9238 95.6796 53.9875 91.4899 55.4541 89.8696C56.9206 88.2493 61.2286 89.8117 65.0669 93.3533Z" fill="#D5D5D5"/>
<path d="M123.534 8.47168C123.534 8.47168 97.9842 22.4527 80.9354 61.5023C63.8867 100.552 67.1407 137.472 67.1407 137.472" stroke="#D5D5D5" stroke-width="1.2832" stroke-miterlimit="10"/>
</g>
<defs>
<clipPath id="clip0_119_127">
<rect width="179" height="139" fill="white" transform="matrix(-1 0 0 1 179 0)"/>
</clipPath>
</defs>
</svg>
