<svg width="585" height="214" viewBox="0 0 585 214" fill="none" xmlns="http://www.w3.org/2000/svg">
<g clip-path="url(#clip0_120_759)">
<path d="M585 59.369L573.818 81.0251L569.695 83.9011L566.346 140.89L561.989 140.584L553.896 124.49L548.289 119.712L542.687 106.021L531.478 114.424L510.463 149.627H506.727L497.388 157.416L485.717 156.28L397.997 94.1341L393.254 95.536L361.057 71.4953L338.059 63.3224L331.877 65.5674L322.606 109.209L317.602 109.718L326.94 77.9822L326.01 73.1227L306.227 75.327L261.162 95.536L250.263 97.3617L119.062 106.635L89.7652 119.351L83.1334 117.949L56.9839 129.332L51.112 128.142L39.2827 79.5555H36.9357L18.1284 11.2019L8.46171 1.99219L0 15.5295V214L585 192.713V59.369Z" fill="url(#paint0_linear_120_759)"/>
<path opacity="0.5" d="M549.067 190.518L552.516 193.895L563.405 193.498L563.864 189.071L549.539 188.873L549.067 190.518Z" fill="url(#paint1_linear_120_759)"/>
<path opacity="0.5" d="M0 22.3092V26.8442L7.84125 11.9365L0 22.3092Z" fill="url(#paint2_linear_120_759)"/>
<path opacity="0.5" d="M585 189.13L584.87 189.112L585 188.188V115.538L575.221 128.404V90.7895L573.818 81.0254L569.695 83.9014L568.994 139.326L563.864 189.071L585 189.36V189.13Z" fill="url(#paint3_linear_120_759)"/>
<path opacity="0.5" d="M558.563 155.87L553.896 124.49L548.914 122.227L546.423 165.391L545.331 153.409V122.227L543.155 109.141L536.851 151.344L532.566 155.09L525.876 159.458L525.175 138.555L524.941 152.282L522.45 167.086L511.515 153.684L510.463 149.627L509.533 153.684L504.16 166.094L500.891 168.082L497.389 157.416L485.717 156.28L490.617 158.367L492.722 168.082H490.15L442.095 154.468L395.897 98.7502V94.7517L393.254 95.536L395.434 102.339L425.001 142.955L361.925 72.1399L338.059 63.3224L343.216 80.6058L339.799 81.9266L344.534 94.6931L339.395 108.113L329.899 110.142L327.255 96.8749L322.606 109.209L317.602 109.718L326.689 76.6659L326.01 73.1227L321.41 82.986L313.713 96.8749L287.249 100.625L297.055 86.2813L310.754 78.149L306.227 78.6178L296.587 85.853L287.249 93.2415H274.641L281.813 86.2723L261.162 95.536L142.284 104.994L125.19 115.727L89.7652 128.142L83.1334 126.528L119.062 106.635L89.7652 119.351L90.3721 121.479L81.8969 126.064L68.0039 129.332L83.1334 117.949L56.9839 129.332L51.112 128.142L39.2827 79.5555L47.0655 131.721L43.3292 142.955L36.9357 144.965V79.5555L18.1284 11.2019L8.46171 1.99219L13.7537 11.9367L12.5082 84.2617L8.46171 111.846L0 121.831V181.34L549.539 188.873L556.697 163.984L558.563 155.87Z" fill="url(#paint4_linear_120_759)"/>
<path d="M8.46171 1.99219L0 15.5295V22.3094L7.84124 11.9367L0 28.4176V31.8527L1.76698 27.0292L4.72543 28.9856L6.59582 38.317V50.7814L12.5082 84.2617L13.7537 11.9367L8.46171 1.99219Z" fill="#DBD1FF"/>
<path d="M0 94.0039L11.8023 89.0723L0 92.0881V94.0039Z" fill="#DBD1FF"/>
<path d="M39.2826 79.5557L42.8166 103.254L36.9357 111.846L43.6169 108.591L36.9357 120.614V79.5557H39.2826Z" fill="#DBD1FF"/>
<path d="M338.059 63.3232L343.216 80.6111L339.799 81.9274L344.534 94.6939L339.395 108.114L329.899 110.143L327.255 96.8757L331.877 65.5682L338.059 63.3232Z" fill="#DBD1FF"/>
<path d="M326.01 73.123L313.713 96.8753L317.368 83.0901L314.76 81.927L290.292 96.1766L296.587 85.8534L310.754 78.1494L306.227 78.6182L294.681 87.3636H279.538L281.813 86.2726L306.227 75.3274L326.01 73.123Z" fill="#DBD1FF"/>
<path d="M345.343 100.473L341.054 124.378L343.216 122.228L352.159 150.186L375.274 167.086L360.333 150.186L375.274 155.677L345.343 100.473Z" fill="#DBD1FF"/>
<path d="M397.997 94.1348L405.101 102.217L415.901 119.352L406.949 109.502L415.901 122.228L395.897 98.7509V94.7523L397.997 94.1348Z" fill="#DBD1FF"/>
<path d="M531.478 114.424L510.463 149.627L525.719 128.453L528.052 122.227H530.08L519.806 140.89L517.468 158.056L525.233 140.273L525.876 159.458L536.851 151.344L539.886 111.846L531.478 114.424Z" fill="#DBD1FF"/>
<path d="M142.284 104.994L123.207 116.426L89.7652 128.142L83.1334 126.528L109.094 112.153L100.925 118.653L119.062 108.763L114.413 109.209L119.062 106.635L142.284 104.994Z" fill="#DBD1FF"/>
<path d="M585 73.8937V59.3691L573.818 81.0252L584.015 67.9748L581.677 79.2401L585 73.8937Z" fill="#DBD1FF"/>
<path d="M52.2045 126.384L40.2763 78.4604L37.156 76.7383L19.3468 9.94898L9.25303 0L0 14.4569V15.5298L8.46171 1.9925L18.1284 11.2022L36.9357 79.5558H39.2827L51.112 128.142L56.9839 129.332L52.2045 126.384Z" fill="#9CA9FF"/>
<path d="M62.1455 127.083L83.1334 117.95L89.7652 119.352L119.062 106.635L250.263 97.3621L261.162 95.5364L306.227 75.3274L326.01 73.123L305.346 74.5611L261.162 94.1345L250.299 96.8753L118.181 105.715L90.3722 118.22L83.1334 116.949L62.1455 127.083Z" fill="#9CA9FF"/>
<path d="M585 58.1748L573.818 79.5559L568.333 83.2163L566.346 140.891L569.695 83.9015L573.818 81.0255L585 59.3694V58.1748Z" fill="#9CA9FF"/>
<path d="M542.687 106.021L531.478 114.424L510.463 149.627H506.727L510.463 148.301L531.478 113.108L542.687 106.021Z" fill="#9CA9FF"/>
</g>
<defs>
<linearGradient id="paint0_linear_120_759" x1="292.5" y1="224.259" x2="292.5" y2="-6.71031" gradientUnits="userSpaceOnUse">
<stop offset="0.019" stop-color="#6BA1DF"/>
<stop offset="0.1833" stop-color="#696FCB"/>
<stop offset="0.4035" stop-color="#6527AE"/>
<stop offset="0.6862" stop-color="#3C1576"/>
<stop offset="1" stop-color="#0C0033"/>
</linearGradient>
<linearGradient id="paint1_linear_120_759" x1="556.466" y1="224.259" x2="556.466" y2="-5.9727" gradientUnits="userSpaceOnUse">
<stop stop-color="#BEB8CB"/>
<stop offset="1" stop-color="#925CBF"/>
</linearGradient>
<linearGradient id="paint2_linear_120_759" x1="3.91995" y1="224.259" x2="3.91995" y2="-5.97412" gradientUnits="userSpaceOnUse">
<stop stop-color="#BEB8CB"/>
<stop offset="1" stop-color="#925CBF"/>
</linearGradient>
<linearGradient id="paint3_linear_120_759" x1="574.432" y1="224.259" x2="574.432" y2="-5.97311" gradientUnits="userSpaceOnUse">
<stop stop-color="#BEB8CB"/>
<stop offset="1" stop-color="#925CBF"/>
</linearGradient>
<linearGradient id="paint4_linear_120_759" x1="279.282" y1="224.259" x2="279.282" y2="-5.97411" gradientUnits="userSpaceOnUse">
<stop stop-color="#BEB8CB"/>
<stop offset="1" stop-color="#925CBF"/>
</linearGradient>
<clipPath id="clip0_120_759">
<rect width="585" height="214" fill="white"/>
</clipPath>
</defs>
</svg>
