<svg width="218" height="193" viewBox="0 0 218 193" fill="none" xmlns="http://www.w3.org/2000/svg">
<g clip-path="url(#clip0_119_101)">
<path d="M149.924 133.871C149.924 133.871 132.384 87.0574 153.894 47.4006C163.65 29.4159 202.85 33.8971 178.798 67.126C168.86 80.8689 151.65 96.1074 149.924 133.871Z" fill="#3285FF"/>
<path d="M168.475 52.2236C168.475 52.2236 133.657 98.8423 155.489 151.415" stroke="#3081F8" stroke-width="1.3664" stroke-miterlimit="10"/>
<path d="M138.771 136.055C138.771 136.055 118.523 85.0757 44.2329 83.1068C18.6294 82.4259 -2.49543 126.276 48.7418 122.655C69.9104 121.16 97.4914 112.93 138.771 136.055Z" fill="#D5D5D5"/>
<path d="M39.7225 101.805C39.7225 101.805 112.29 95.5727 153.742 153.585" stroke="#D5D5D5" stroke-width="1.7113" stroke-miterlimit="10"/>
<path d="M53.1737 45.5912C58.4087 46.8871 61.691 51.8914 61.691 51.8914C61.691 51.8914 56.4752 54.7972 51.2293 53.5052C45.9834 52.2131 42.1755 49.3924 42.712 47.205C43.2485 45.0175 47.9278 44.2991 53.1737 45.5912Z" fill="#D5D5D5"/>
<path d="M67.2217 54.1756C71.2944 54.3286 74.4905 57.5303 74.4905 57.5303C74.4905 57.5303 71.0746 60.4873 67.002 60.3343C62.9293 60.1813 59.6703 58.676 59.7331 56.9796C59.796 55.2833 63.149 54.0226 67.2217 54.1756Z" fill="#D5D5D5"/>
<path d="M69.3131 48.3008C72.0622 51.3195 72.0237 55.8375 72.0237 55.8375C72.0237 55.8375 67.5179 55.4718 64.7688 52.4531C62.0196 49.4345 60.8004 46.0601 62.0581 44.9165C63.301 43.766 66.5531 45.2862 69.3131 48.3008Z" fill="#D5D5D5"/>
<path d="M76.0478 59.9707C80.9352 59.3863 85.3349 62.6208 85.3349 62.6208C85.3349 62.6208 81.8145 66.7847 76.9232 67.3582C72.0358 67.9425 67.8818 66.7483 67.6361 64.708C67.4013 62.6639 71.1674 60.5402 76.0478 59.9707Z" fill="#D5D5D5"/>
<path d="M82.2709 52.4059C85.1726 56.3908 84.5245 61.8059 84.5245 61.8059C84.5245 61.8059 79.1716 60.7618 76.2738 56.7877C73.3721 52.8028 72.3586 48.6033 74.0202 47.3877C75.671 46.176 79.3583 48.4249 82.2709 52.4059Z" fill="#D5D5D5"/>
<path d="M83.7216 67.7444C88.347 66.061 93.3655 68.1859 93.3655 68.1859C93.3655 68.1859 90.8936 73.0416 86.2721 74.7359C81.6467 76.4193 77.3282 76.2321 76.6281 74.2945C75.9172 72.3608 79.0961 69.4279 83.7216 67.7444Z" fill="#D5D5D5"/>
<path d="M93.1185 76.0037C97.9696 73.9926 103.421 76.0227 103.421 76.0227C103.421 76.0227 101.011 81.3235 96.1602 83.3346C91.3091 85.3456 86.6991 85.3375 85.858 83.3155C85.013 81.2826 88.2674 78.0148 93.1185 76.0037Z" fill="#D5D5D5"/>
<path d="M102.001 84.4365C106.617 81.9444 112.254 83.4025 112.254 83.4025C112.254 83.4025 110.392 88.9242 105.776 91.4164C101.16 93.9086 96.562 94.376 95.5223 92.4504C94.4826 90.5248 97.385 86.9287 102.001 84.4365Z" fill="#D5D5D5"/>
<path d="M112.087 94.0583C117.052 92.3629 122.369 94.7367 122.369 94.7367C122.369 94.7367 119.63 99.8735 114.654 101.573C109.689 103.268 105.087 102.974 104.372 100.894C103.672 98.8213 107.126 95.7646 112.087 94.0583Z" fill="#D5D5D5"/>
<path d="M89.618 58.8334C89.3301 63.7492 92.8041 67.9581 92.8041 67.9581C92.8041 67.9581 96.7366 64.1868 97.0246 59.271C97.3125 54.3552 95.8851 50.2683 93.8385 50.1463C91.7919 50.0243 89.902 53.9067 89.618 58.8334Z" fill="#D5D5D5"/>
<path d="M101.849 65.9582C100.531 71.0493 103.289 76.1688 103.289 76.1688C103.289 76.1688 108.192 73.0437 109.514 67.9635C110.832 62.8724 110.19 58.3052 108.074 57.7529C105.958 57.2007 103.167 60.8672 101.849 65.9582Z" fill="#D5D5D5"/>
<path d="M111.42 73.6127C109.59 78.5442 111.814 83.9184 111.814 83.9184C111.814 83.9184 117.016 81.3131 118.846 76.3815C120.676 71.45 120.497 66.8385 118.452 66.0758C116.396 65.3171 113.25 68.6811 111.42 73.6127Z" fill="#D5D5D5"/>
<path d="M120.046 84.9065C119.048 90.0667 122.124 95.01 122.124 95.01C122.124 95.01 126.822 91.5897 127.817 86.4187C128.815 81.2586 127.881 76.7351 125.739 76.3152C123.597 75.8954 121.045 79.7464 120.046 84.9065Z" fill="#D5D5D5"/>
<path d="M121.538 104.575C126.749 103.935 131.461 107.352 131.461 107.352C131.461 107.352 127.724 111.803 122.502 112.447C117.291 113.087 112.847 111.837 112.579 109.669C112.323 107.498 116.326 105.215 121.538 104.575Z" fill="#D5D5D5"/>
<path d="M131.218 97.2624C129.174 102.111 131.174 107.579 131.174 107.579C131.174 107.579 136.48 105.194 138.517 100.36C140.561 95.5112 140.579 90.9022 138.562 90.0437C136.544 89.1852 133.252 92.4174 131.218 97.2624Z" fill="#D5D5D5"/>
<path d="M129.516 116.829C134.764 116.631 139.164 120.444 139.164 120.444C139.164 120.444 135.061 124.56 129.812 124.758C124.564 124.956 120.242 123.33 120.165 121.143C120.083 118.945 124.274 117.012 129.516 116.829Z" fill="#D5D5D5"/>
<path d="M139.784 110.363C137.336 115.013 138.865 120.638 138.865 120.638C138.865 120.638 144.351 118.718 146.799 114.068C149.247 109.418 149.66 104.814 147.718 103.792C145.776 102.771 142.221 105.717 139.784 110.363Z" fill="#D5D5D5"/>
<path d="M55.4865 50.564C55.4865 50.564 84.4709 54.9582 113.91 85.8434C143.35 116.729 152.809 152.568 152.809 152.568" stroke="#D5D5D5" stroke-width="1.2832" stroke-miterlimit="10"/>
</g>
<defs>
<clipPath id="clip0_119_101">
<rect width="180.517" height="139.005" fill="white" transform="translate(0 61.6025) rotate(-19.8643)"/>
</clipPath>
</defs>
</svg>
