<svg width="20" height="20" viewBox="0 0 20 20" fill="none" xmlns="http://www.w3.org/2000/svg">
<g clip-path="url(#clip0_120_187)">
<path fill-rule="evenodd" clip-rule="evenodd" d="M14.0361 5.45625C13.0035 4.4715 11.6256 3.93503 10.1999 3.95707C7.5911 3.95707 5.37542 5.71712 4.5854 8.08712C4.16651 9.32908 4.16651 10.674 4.5854 11.9159H4.58907C5.38275 14.2823 7.59476 16.0423 10.2036 16.0423C11.5503 16.0423 12.7064 15.6979 13.6025 15.0895V15.087C14.6571 14.3889 15.3773 13.2902 15.6014 12.0482H10.2V8.19742H19.6323C19.7499 8.86617 19.805 9.54961 19.805 10.2294C19.805 13.2709 18.718 15.8424 16.8267 17.5841L16.8286 17.5856C15.1715 19.1142 12.897 19.9997 10.1999 19.9997C6.41894 19.9997 2.96129 17.8685 1.26369 14.4917C-0.154633 11.6661 -0.154629 8.33703 1.2637 5.51139C2.9613 2.1309 6.41894 -0.000302674 10.1999 -0.000302674C12.6839 -0.0296982 15.0833 0.903611 16.8911 2.6012L14.0361 5.45625Z" fill="white"/>
</g>
<defs>
<clipPath id="clip0_120_187">
<rect width="20" height="20" fill="white"/>
</clipPath>
</defs>
</svg>
