<svg width="20" height="20" viewBox="0 0 20 20" fill="none" xmlns="http://www.w3.org/2000/svg">
<g clip-path="url(#clip0_81_14652)">
<path fill-rule="evenodd" clip-rule="evenodd" d="M14.0361 5.45673C13.0036 4.47198 11.6257 3.93552 10.2 3.95756C7.59116 3.95756 5.37548 5.71761 4.58546 8.08761C4.16658 9.32956 4.16657 10.6745 4.58546 11.9164H4.58913C5.38281 14.2828 7.59482 16.0428 10.2037 16.0428C11.5504 16.0428 12.7065 15.6984 13.6026 15.09V15.0875C14.6571 14.3893 15.3773 13.2907 15.6015 12.0487H10.2V8.19791H19.6323C19.7499 8.86666 19.805 9.5501 19.805 10.2299C19.805 13.2714 18.718 15.8429 16.8267 17.5846L16.8287 17.5861C15.1715 19.1147 12.897 20.0002 10.2 20.0002C6.419 20.0002 2.96135 17.869 1.26375 14.4922C-0.154572 11.6666 -0.154568 8.33752 1.26376 5.51188C2.96136 2.13139 6.419 0.000185607 10.2 0.000185607C12.6839 -0.0292099 15.0833 0.904099 16.8912 2.60169L14.0361 5.45673Z" fill="white"/>
</g>
<defs>
<clipPath id="clip0_81_14652">
<rect width="20" height="20" fill="white"/>
</clipPath>
</defs>
</svg>
