<svg width="219" height="25" viewBox="0 0 219 25" fill="none" xmlns="http://www.w3.org/2000/svg">
<ellipse cx="206.5" cy="12.5" rx="12.5" ry="12.5" transform="rotate(-180 206.5 12.5)" fill="#FFC70A"/>
<path d="M209.796 12.5311L205.848 16.7798C205.575 17.0734 205.134 17.0734 204.864 16.7798L204.208 16.0737C203.935 15.7801 203.935 15.3052 204.208 15.0147L207.003 12L204.205 8.98844C203.932 8.69478 203.932 8.21993 204.205 7.9294L204.861 7.22024C205.134 6.92659 205.575 6.92659 205.845 7.22024L209.793 11.4689C210.069 11.7626 210.069 12.2374 209.796 12.5311Z" fill="#3F3F3F"/>
<ellipse cx="12.5" cy="12.5" rx="12.5" ry="12.5" transform="rotate(-180 12.5 12.5)" fill="#8B8B8B"/>
<path d="M9.20429 12.4689L13.1523 8.22024C13.4252 7.92659 13.8664 7.92659 14.1364 8.22024L14.7924 8.92627C15.0653 9.21993 15.0653 9.69478 14.7924 9.98532L11.9969 13L14.7953 16.0116C15.0682 16.3052 15.0682 16.7801 14.7953 17.0706L14.1393 17.7798C13.8664 18.0734 13.4252 18.0734 13.1552 17.7798L9.2072 13.5311C8.93142 13.2374 8.93142 12.7626 9.20429 12.4689Z" fill="#6B6B6B"/>
<circle cx="64.5" cy="12.5" r="4.5" fill="#8B8B8B"/>
<circle cx="124.5" cy="12.5" r="4.5" fill="#8B8B8B"/>
<circle cx="94.5" cy="12.5" r="4.5" fill="#FFC70A"/>
<circle cx="154.5" cy="12.5" r="4.5" fill="#8B8B8B"/>
</svg>
