<svg width="93" height="13" viewBox="0 0 93 13" fill="none" xmlns="http://www.w3.org/2000/svg">
<path d="M6.5 0L7.95934 4.49139H12.6819L8.86126 7.26722L10.3206 11.7586L6.5 8.98278L2.6794 11.7586L4.13874 7.26722L0.318133 4.49139H5.04066L6.5 0Z" fill="#FFC70A"/>
<path d="M26.5 0L27.9593 4.49139H32.6819L28.8613 7.26722L30.3206 11.7586L26.5 8.98278L22.6794 11.7586L24.1387 7.26722L20.3181 4.49139H25.0407L26.5 0Z" fill="#FFC70A"/>
<path d="M46.5 0L47.9593 4.49139H52.6819L48.8613 7.26722L50.3206 11.7586L46.5 8.98278L42.6794 11.7586L44.1387 7.26722L40.3181 4.49139H45.0407L46.5 0Z" fill="#FFC70A"/>
<path d="M66.5 0L67.9593 4.49139H72.6819L68.8613 7.26722L70.3206 11.7586L66.5 8.98278L62.6794 11.7586L64.1387 7.26722L60.3181 4.49139H65.0407L66.5 0Z" fill="#FFC70A"/>
<path d="M86.5 0L87.9593 4.49139H92.6819L88.8613 7.26722L90.3206 11.7586L86.5 8.98278L82.6794 11.7586L84.1387 7.26722L80.3181 4.49139H85.0407L86.5 0Z" fill="#FFC70A"/>
</svg>
