<svg width="15" height="14" viewBox="0 0 15 14" fill="none" xmlns="http://www.w3.org/2000/svg">
<path d="M5.95312 1.09058L6.64687 0.396826C6.94062 0.103076 7.41563 0.103076 7.70625 0.396826L13.7812 6.4687C14.075 6.76245 14.075 7.23745 13.7812 7.52808L7.70625 13.6031C7.4125 13.8968 6.9375 13.8968 6.64687 13.6031L5.95312 12.9093C5.65625 12.6125 5.6625 12.1281 5.96562 11.8375L9.73125 8.24995H0.75C0.334375 8.24995 0 7.91558 0 7.49995V6.49995C0 6.08433 0.334375 5.74995 0.75 5.74995H9.73125L5.96562 2.16245C5.65937 1.87183 5.65312 1.38745 5.95312 1.09058Z" fill="#FFC70A"/>
</svg>
