<svg width="17" height="17" viewBox="0 0 17 17" fill="none" xmlns="http://www.w3.org/2000/svg">
<mask id="mask0_17162_101342" style="mask-type:alpha" maskUnits="userSpaceOnUse" x="0" y="0" width="17" height="17">
<rect x="0.75" y="0.5" width="16" height="16" fill="#D9D9D9"/>
</mask>
<g mask="url(#mask0_17162_101342)">
<path d="M11.9499 15.6969C13.061 15.6969 14.0054 15.308 14.7832 14.5302C15.561 13.7524 15.9499 12.808 15.9499 11.6969H15.1499C15.1499 12.5858 14.8388 13.3413 14.2165 13.9635C13.5943 14.5858 12.8388 14.8969 11.9499 14.8969V15.6969ZM1.54987 5.29688H2.34987C2.34987 4.40799 2.66098 3.65243 3.2832 3.03021C3.90543 2.40799 4.66098 2.09688 5.54987 2.09688V1.29688C4.43876 1.29688 3.49431 1.68576 2.71654 2.46354C1.93876 3.24132 1.54987 4.18576 1.54987 5.29688ZM3.1832 14.0635C2.0832 12.9635 1.5332 11.6413 1.5332 10.0969C1.5332 8.55243 2.0832 7.23021 3.1832 6.13021L5.7332 3.59688C6.05543 3.27465 6.4332 3.11354 6.86654 3.11354C7.29987 3.11354 7.67765 3.27465 7.99987 3.59688C8.05543 3.65243 8.09987 3.70521 8.1332 3.75521C8.16654 3.80521 8.20543 3.85799 8.24987 3.91354L9.96654 2.18021C10.2776 1.8691 10.6526 1.71354 11.0915 1.71354C11.5304 1.71354 11.911 1.8691 12.2332 2.18021C12.2888 2.23576 12.3388 2.29132 12.3832 2.34688C12.4276 2.40243 12.4665 2.46354 12.4999 2.53021C12.8221 2.3191 13.1693 2.23576 13.5415 2.28021C13.9138 2.32465 14.2332 2.48021 14.4999 2.74688C14.7443 2.99132 14.8943 3.28021 14.9499 3.61354C15.0054 3.94688 14.9554 4.2691 14.7999 4.58021C14.8776 4.62465 14.9499 4.6691 15.0165 4.71354C15.0832 4.75799 15.1443 4.80799 15.1999 4.86354C15.5221 5.18576 15.6832 5.56354 15.6832 5.99688C15.6832 6.43021 15.5221 6.80799 15.1999 7.13021L14.7499 7.58021C14.8054 7.61354 14.861 7.64965 14.9165 7.68854C14.9721 7.72743 15.0221 7.77465 15.0665 7.83021C15.3888 8.15243 15.5499 8.53299 15.5499 8.97188C15.5499 9.41076 15.3888 9.78576 15.0665 10.0969L11.1165 14.0635C10.0054 15.1635 8.68043 15.7135 7.14154 15.7135C5.60265 15.7135 4.2832 15.1635 3.1832 14.0635ZM4.0332 13.2135C4.46654 13.6469 4.95265 13.9691 5.49154 14.1802C6.03043 14.3913 6.5832 14.4969 7.14987 14.4969C7.71654 14.4969 8.26931 14.3913 8.8082 14.1802C9.34709 13.9691 9.8332 13.6469 10.2665 13.2135L14.2165 9.24688C14.3054 9.15799 14.3499 9.06076 14.3499 8.95521C14.3499 8.84965 14.3054 8.75799 14.2165 8.68021C14.1388 8.60243 14.0443 8.56354 13.9332 8.56354C13.8221 8.56354 13.7276 8.60243 13.6499 8.68021L11.3832 10.9469L10.5499 10.0969L14.3665 6.28021C14.4554 6.19132 14.4999 6.0941 14.4999 5.98854C14.4999 5.88299 14.4554 5.79132 14.3665 5.71354C14.2776 5.63576 14.1804 5.59688 14.0749 5.59688C13.9693 5.59688 13.8776 5.63576 13.7999 5.71354L10.5499 8.96354L9.69987 8.11354L13.6499 4.16354C13.7276 4.08576 13.7665 3.99132 13.7665 3.88021C13.7665 3.7691 13.7276 3.67465 13.6499 3.59688C13.5721 3.5191 13.4776 3.48021 13.3665 3.48021C13.2554 3.48021 13.161 3.5191 13.0832 3.59688L9.1332 7.54688L8.2832 6.69688L11.3999 3.59688C11.4776 3.5191 11.5165 3.42465 11.5165 3.31354C11.5165 3.20243 11.4776 3.10799 11.3999 3.03021C11.3221 2.95243 11.2276 2.91354 11.1165 2.91354C11.0054 2.91354 10.911 2.95243 10.8332 3.03021L6.41654 7.43021C6.67209 8.04132 6.73876 8.66354 6.61654 9.29688C6.49432 9.93021 6.19987 10.4802 5.7332 10.9469L4.8832 10.0969C5.27209 9.70799 5.46654 9.23576 5.46654 8.68021C5.46654 8.12465 5.27209 7.65243 4.8832 7.26354L7.14987 5.01354C7.23876 4.92465 7.2832 4.82743 7.2832 4.72188C7.2832 4.61632 7.23876 4.52465 7.14987 4.44688C7.06098 4.3691 6.96376 4.33021 6.8582 4.33021C6.75265 4.33021 6.66098 4.3691 6.5832 4.44688L4.0332 6.98021C3.59987 7.41354 3.27765 7.89965 3.06654 8.43854C2.85543 8.97743 2.74987 9.53021 2.74987 10.0969C2.74987 10.6635 2.85543 11.2163 3.06654 11.7552C3.27765 12.2941 3.59987 12.7802 4.0332 13.2135Z" fill="#0073E6"/>
</g>
</svg>
