<svg width="16" height="17" viewBox="0 0 16 17" fill="none" xmlns="http://www.w3.org/2000/svg">
<path d="M11.5306 8.95247L6.5306 13.9525C6.3897 14.0934 6.19861 14.1725 5.99935 14.1725C5.80009 14.1725 5.60899 14.0934 5.4681 13.9525C5.3272 13.8116 5.24805 13.6205 5.24805 13.4212C5.24805 13.222 5.3272 13.0309 5.4681 12.89L9.93747 8.42185L5.46935 3.95247C5.39958 3.88271 5.34424 3.79989 5.30649 3.70873C5.26873 3.61758 5.2493 3.51989 5.2493 3.42122C5.2493 3.32256 5.26873 3.22486 5.30649 3.13371C5.34424 3.04256 5.39958 2.95974 5.46935 2.88997C5.53911 2.82021 5.62194 2.76487 5.71309 2.72711C5.80424 2.68935 5.90194 2.66992 6.0006 2.66992C6.09926 2.66992 6.19696 2.68935 6.28811 2.72711C6.37926 2.76487 6.46208 2.82021 6.53185 2.88997L11.5318 7.88997C11.6017 7.95973 11.6571 8.04259 11.6948 8.1338C11.7326 8.22501 11.7519 8.32277 11.7518 8.42148C11.7517 8.52019 11.7321 8.61791 11.6941 8.70903C11.6562 8.80015 11.6006 8.88288 11.5306 8.95247Z" fill="#E8F0F5"/>
</svg>
