<svg width="267" height="395" viewBox="0 0 267 395" fill="none" xmlns="http://www.w3.org/2000/svg">
<g clip-path="url(#clip0_19247_111498)">
<path d="M106 352.807L92.7111 352.807L92.7111 327L106 327L106 352.807Z" fill="#245DB0"/>
<path d="M80 353L80 339.711L105.807 339.711L105.807 353L80 353Z" fill="#245DB0"/>
<path d="M13 369.193H26.2889L26.2889 395H13L13 369.193Z" fill="#FFF3B8"/>
<path d="M39 369V382.289L13.1926 382.289L13.1926 369L39 369Z" fill="#FFF3B8"/>
<path d="M244.164 0H255.836V34H244.164V0Z" fill="#8D5FCF"/>
<path d="M267 11.1642V22.8358L233 22.8358L233 11.1642L267 11.1642Z" fill="#8D5FCF"/>
<path d="M111.403 175H152.597V295H111.403V175Z" fill="#E3EFFA"/>
<path d="M192 214.403V255.597L72 255.597L72 214.403L192 214.403Z" fill="#E3EFFA"/>
<path d="M21.4478 0H82.5522V178H21.4478V0Z" fill="#FFF3B8"/>
<path d="M141 58.4478V119.552L-37 119.552L-37 58.4478L141 58.4478Z" fill="#FFF3B8"/>
</g>
<defs>
<clipPath id="clip0_19247_111498">
<rect width="267" height="395" fill="white"/>
</clipPath>
</defs>
</svg>
