<svg width="40" height="40" viewBox="0 0 40 40" fill="none" xmlns="http://www.w3.org/2000/svg">
<path d="M33.3269 38.7112H33.3272C34.0144 38.7105 34.6733 38.4372 35.1593 37.9512C35.6452 37.4653 35.9186 36.8064 35.9192 36.1191V36.1189V12.5765V12.5762C35.9183 11.8891 35.6449 11.2304 35.159 10.7447C34.6731 10.2589 34.0143 9.98568 33.3272 9.98501H33.3269H31.8731V7.74578V7.74553C31.8724 7.05828 31.5991 6.39937 31.1131 5.91342C30.6272 5.42746 29.9683 5.15415 29.281 5.15347H29.2808H15.1654V4.23962V4.23934C15.1645 3.45689 14.8533 2.70675 14.3 2.15347C13.7467 1.6002 12.9966 1.28898 12.2141 1.28809L12.2136 1.28809C11.4311 1.28898 10.681 1.6002 10.1277 2.15347C9.57442 2.70675 9.2632 3.45689 9.26231 4.23934V4.23962V5.15347L6.84231 5.15347L6.84206 5.15347C6.15481 5.15415 5.4959 5.42746 5.00994 5.91341C4.52399 6.39937 4.25068 7.05828 4.25 7.74553V7.74578L4.25 32.0735L4.25 32.0738C4.2509 32.7609 4.52431 33.4196 5.01024 33.9054C5.49618 34.3911 6.15496 34.6643 6.84206 34.665H6.8423L9.08231 34.6651V36.1189V36.1191C9.08298 36.8064 9.35629 37.4653 9.84225 37.9512C10.3282 38.4372 10.9871 38.7105 11.6744 38.7112H11.6746H33.3269ZM11.1208 36.1189V34.6652L29.2815 34.6658H29.2819C29.969 34.6649 30.6277 34.3915 31.1134 33.9055C31.5992 33.4196 31.8724 32.7608 31.8731 32.0737V32.0735V12.0235H33.3269C33.6316 12.0235 33.8808 12.272 33.8808 12.5765V36.1189C33.8808 36.4239 33.6319 36.6727 33.3269 36.6727H11.6746C11.3696 36.6727 11.1208 36.4239 11.1208 36.1189ZM6.84231 7.19193H9.26231V11.9712V11.9714C9.2632 12.7539 9.57442 13.504 10.1277 14.0573C10.681 14.6106 11.4311 14.9218 12.2136 14.9227L12.2142 14.9227C12.9966 14.9216 13.7466 14.6103 14.2998 14.0571C14.853 13.5039 15.1643 12.7539 15.1654 11.9715V11.9712V9.82039C15.1654 9.55007 15.058 9.29083 14.8669 9.09969C14.6757 8.90855 14.4165 8.80116 14.1462 8.80116C13.8758 8.80116 13.6166 8.90855 13.4254 9.09969C13.2343 9.29083 13.1269 9.55008 13.1269 9.82039V11.9712C13.1269 12.474 12.7172 12.8842 12.2138 12.8842C11.7106 12.8842 11.3008 12.4741 11.3008 11.9704V7.19193L14.1462 7.19193L29.2815 7.19193C29.5862 7.19193 29.8346 7.44046 29.8346 7.74578V9.98501V10.235V32.0735C29.8346 32.1116 29.8307 32.1489 29.8233 32.1849C29.7716 32.437 29.5481 32.6273 29.2815 32.6273H9.33231H9.08231V32.6281H6.84231C6.53792 32.6281 6.28846 32.3791 6.28846 32.0742V7.74578C6.28846 7.44139 6.53746 7.19193 6.84231 7.19193ZM13.1269 5.15347H11.3008V4.23962C11.3008 3.73616 11.7104 3.32655 12.2138 3.32655C12.7173 3.32655 13.1269 3.73616 13.1269 4.23962V5.15347ZM10.2692 20.1296H25.8538C26.1242 20.1296 26.3834 20.0222 26.5746 19.8311C26.7657 19.64 26.8731 19.3807 26.8731 19.1104C26.8731 18.8401 26.7657 18.5808 26.5746 18.3897C26.3834 18.1985 26.1242 18.0912 25.8538 18.0912H10.2692C9.99891 18.0912 9.73967 18.1985 9.54852 18.3897C9.35738 18.5808 9.25 18.8401 9.25 19.1104C9.25 19.3807 9.35738 19.64 9.54852 19.8311C9.73967 20.0222 9.99891 20.1296 10.2692 20.1296ZM10.2692 24.745H25.8538C26.1242 24.745 26.3834 24.6376 26.5746 24.4465C26.7657 24.2553 26.8731 23.9961 26.8731 23.7258C26.8731 23.4555 26.7657 23.1962 26.5746 23.0051C26.3834 22.8139 26.1242 22.7065 25.8538 22.7065H10.2692C9.99891 22.7065 9.73967 22.8139 9.54852 23.0051C9.35738 23.1962 9.25 23.4555 9.25 23.7258C9.25 23.9961 9.35738 24.2553 9.54852 24.4465C9.73967 24.6376 9.99891 24.745 10.2692 24.745ZM10.2692 29.3604H25.8538C26.1242 29.3604 26.3834 29.253 26.5746 29.0619C26.7657 28.8707 26.8731 28.6115 26.8731 28.3412C26.8731 28.0709 26.7657 27.8116 26.5746 27.6205C26.3834 27.4293 26.1242 27.3219 25.8538 27.3219H10.2692C9.99891 27.3219 9.73967 27.4293 9.54852 27.6205C9.35738 27.8116 9.25 28.0709 9.25 28.3412C9.25 28.6115 9.35738 28.8707 9.54852 29.0619C9.73967 29.253 9.99891 29.3604 10.2692 29.3604Z" fill="#1C4980" stroke="#1C4980" stroke-width="0.5"/>
</svg>
