<svg width="40" height="40" viewBox="0 0 40 40" fill="none" xmlns="http://www.w3.org/2000/svg">
<path d="M17.5703 14.3463L19.4037 10.6297C19.497 10.4406 19.6413 10.2814 19.8204 10.1701C19.9995 10.0587 20.2061 9.99973 20.417 9.99973C20.6279 9.99973 20.8345 10.0587 21.0136 10.1701C21.1927 10.2814 21.337 10.4406 21.4303 10.6297L23.2637 14.3463L27.3653 14.9413C28.292 15.0747 28.662 16.2147 27.992 16.8697L25.0253 19.7613L25.7253 23.8447C25.7615 24.0527 25.7387 24.2667 25.6594 24.4624C25.5801 24.6581 25.4476 24.8277 25.2769 24.952C25.1061 25.0762 24.904 25.1501 24.6934 25.1653C24.4828 25.1805 24.2721 25.1364 24.0853 25.038L20.417 23.1097L16.7503 25.038C16.5636 25.1367 16.3529 25.1812 16.1422 25.1662C15.9315 25.1513 15.7292 25.0776 15.5583 24.9535C15.3874 24.8295 15.2546 24.6599 15.1751 24.4642C15.0957 24.2685 15.0726 24.0545 15.1087 23.8463L15.8087 19.763L12.842 16.8697C12.6907 16.7225 12.5837 16.5359 12.533 16.3311C12.4824 16.1262 12.4901 15.9112 12.5553 15.7105C12.6205 15.5098 12.7407 15.3314 12.9021 15.1954C13.0635 15.0595 13.2598 14.9715 13.4687 14.9413L17.5703 14.3463ZM10.8337 3.33301C9.72859 3.33301 8.66878 3.77199 7.88738 4.5534C7.10598 5.3348 6.66699 6.39461 6.66699 7.49967V32.4997C6.66699 33.6047 7.10598 34.6646 7.88738 35.446C8.66878 36.2274 9.72859 36.6663 10.8337 36.6663H32.917C33.2485 36.6663 33.5665 36.5346 33.8009 36.3002C34.0353 36.0658 34.167 35.7479 34.167 35.4163C34.167 35.0848 34.0353 34.7669 33.8009 34.5325C33.5665 34.298 33.2485 34.1663 32.917 34.1663H10.8337C10.3916 34.1663 9.96771 33.9907 9.65515 33.6782C9.34259 33.3656 9.16699 32.9417 9.16699 32.4997H32.917C33.2485 32.4997 33.5665 32.368 33.8009 32.1336C34.0353 31.8991 34.167 31.5812 34.167 31.2497V7.49967C34.167 6.9525 34.0592 6.41068 33.8498 5.90516C33.6404 5.39964 33.3335 4.94031 32.9466 4.5534C32.5597 4.16649 32.1004 3.85957 31.5948 3.65018C31.0893 3.44078 30.5475 3.33301 30.0003 3.33301H10.8337ZM31.667 29.9997H9.16699V7.49967C9.16699 7.05765 9.34259 6.63372 9.65515 6.32116C9.96771 6.0086 10.3916 5.83301 10.8337 5.83301H30.0003C30.4424 5.83301 30.8663 6.0086 31.1788 6.32116C31.4914 6.63372 31.667 7.05765 31.667 7.49967V29.9997Z" fill="#1C4980"/>
<path d="M19.3337 15.8797C19.2525 16.0436 19.1327 16.1853 18.9846 16.2927C18.8366 16.4002 18.6647 16.47 18.4837 16.4963L16.0603 16.8497L17.8137 18.558C17.9446 18.686 18.0425 18.8439 18.0991 19.018C18.1557 19.1922 18.1693 19.3775 18.1387 19.558L17.7237 21.9713L19.8903 20.8313C20.0527 20.7458 20.2335 20.7011 20.417 20.7011C20.6005 20.7011 20.7813 20.7458 20.9437 20.8313L23.1103 21.9713L22.6953 19.558C22.6644 19.3775 22.6778 19.1921 22.7344 19.0179C22.791 18.8437 22.8892 18.6859 23.0203 18.558L24.7737 16.8497L22.352 16.4963C22.171 16.47 21.9991 16.4002 21.851 16.2927C21.703 16.1853 21.5832 16.0436 21.502 15.8797M17.5703 14.3463L19.4037 10.6297C19.497 10.4406 19.6413 10.2814 19.8204 10.1701C19.9995 10.0587 20.2061 9.99973 20.417 9.99973C20.6279 9.99973 20.8345 10.0587 21.0136 10.1701C21.1927 10.2814 21.337 10.4406 21.4303 10.6297L23.2637 14.3463L27.3653 14.9413C28.292 15.0747 28.662 16.2147 27.992 16.8697L25.0253 19.7613L25.7253 23.8447C25.7615 24.0527 25.7387 24.2667 25.6594 24.4624C25.5801 24.6581 25.4476 24.8277 25.2769 24.952C25.1061 25.0762 24.904 25.1501 24.6934 25.1653C24.4828 25.1805 24.2721 25.1364 24.0853 25.038L20.417 23.1097L16.7503 25.038C16.5636 25.1367 16.3529 25.1812 16.1422 25.1662C15.9315 25.1513 15.7292 25.0776 15.5583 24.9535C15.3874 24.8295 15.2546 24.6599 15.1751 24.4642C15.0957 24.2685 15.0726 24.0545 15.1087 23.8463L15.8087 19.763L12.842 16.8697C12.6907 16.7225 12.5837 16.5359 12.533 16.3311C12.4824 16.1262 12.4901 15.9112 12.5553 15.7105C12.6205 15.5098 12.7407 15.3314 12.9021 15.1954C13.0635 15.0595 13.2598 14.9715 13.4687 14.9413L17.5703 14.3463ZM10.8337 3.33301C9.72859 3.33301 8.66878 3.77199 7.88738 4.5534C7.10598 5.3348 6.66699 6.39461 6.66699 7.49967V32.4997C6.66699 33.6047 7.10598 34.6646 7.88738 35.446C8.66878 36.2274 9.72859 36.6663 10.8337 36.6663H32.917C33.2485 36.6663 33.5665 36.5346 33.8009 36.3002C34.0353 36.0658 34.167 35.7479 34.167 35.4163C34.167 35.0848 34.0353 34.7669 33.8009 34.5325C33.5665 34.298 33.2485 34.1663 32.917 34.1663H10.8337C10.3916 34.1663 9.96771 33.9907 9.65515 33.6782C9.34259 33.3656 9.16699 32.9417 9.16699 32.4997H32.917C33.2485 32.4997 33.5665 32.368 33.8009 32.1336C34.0353 31.8991 34.167 31.5812 34.167 31.2497V7.49967C34.167 6.9525 34.0592 6.41068 33.8498 5.90516C33.6404 5.39964 33.3335 4.94031 32.9466 4.5534C32.5597 4.16649 32.1004 3.85957 31.5948 3.65018C31.0893 3.44078 30.5475 3.33301 30.0003 3.33301H10.8337ZM31.667 29.9997H9.16699V7.49967C9.16699 7.05765 9.34259 6.63372 9.65515 6.32116C9.96771 6.0086 10.3916 5.83301 10.8337 5.83301H30.0003C30.4424 5.83301 30.8663 6.0086 31.1788 6.32116C31.4914 6.63372 31.667 7.05765 31.667 7.49967V29.9997Z" stroke="#1C4980" stroke-width="0.5"/>
</svg>
