<svg width="41" height="40" viewBox="0 0 41 40" fill="none" xmlns="http://www.w3.org/2000/svg">
<path d="M36.1289 15.1949L36.1285 15.1948L30.0035 13.6987C30.0035 13.6987 30.0035 13.6987 30.0035 13.6987C29.9281 13.6803 29.8594 13.641 29.8053 13.5853C29.7512 13.5296 29.7139 13.4598 29.6978 13.3838C29.6816 13.3079 29.6872 13.2289 29.714 13.156C29.7406 13.0832 29.7873 13.0194 29.8486 12.9719C29.8487 12.9718 29.8488 12.9718 29.8489 12.9717L31.7595 11.4793C31.4329 11.066 31.0784 10.6728 30.7024 10.2931C29.4522 9.03915 27.9707 8.03961 26.3398 7.34992L26.3397 7.34988C24.6492 6.63255 22.8539 6.27188 20.9999 6.27188C19.1458 6.27188 17.3467 6.63257 15.6641 7.34981L15.6638 7.34992C14.0329 8.03963 12.5513 9.03922 11.3012 10.2933L11.301 10.2935C10.0367 11.5539 9.04791 13.0235 8.35762 14.6561L8.35757 14.6563C7.64026 16.3468 7.27958 18.146 7.27958 20L7.27958 20.0002C7.27556 21.8338 7.63949 23.6495 8.3498 25.34C9.04403 26.9727 10.0329 28.4424 11.2933 29.7027L11.2934 29.7028C12.5435 30.9569 14.0251 31.9565 15.656 32.6462L15.6561 32.6462C17.3467 33.3636 19.142 33.7242 20.996 33.7242L20.9961 33.7242C22.8304 33.7271 24.6465 33.3605 26.3359 32.6462C27.9668 31.9565 29.4484 30.9569 30.6986 29.7028L30.6988 29.7026C31.9631 28.4423 32.9519 26.9726 33.6422 25.34C33.7237 25.1458 33.8013 24.9518 33.8749 24.7542C33.9123 24.6532 33.9876 24.5708 34.0848 24.5246C34.1821 24.4784 34.2937 24.472 34.3956 24.507L34.3957 24.507L36.6105 25.2687L36.6116 25.2691C36.8282 25.3465 36.9406 25.5876 36.8636 25.8032L36.8633 25.8039C34.4978 32.2756 28.2893 36.8969 20.9999 36.8969C11.7301 36.8969 4.20514 29.4268 4.11083 20.1729L4.11083 20.1729C4.01653 10.7541 11.577 3.10708 20.992 3.10313L36.1289 15.1949ZM36.1289 15.1949C36.3855 15.2565 36.6386 15.0625 36.6389 14.7974L36.1289 15.1949ZM34.2547 9.53035C31.1606 5.61426 26.3698 3.09923 20.992 3.10313L34.2547 9.53035ZM34.2547 9.53035L36.0035 8.1644C36.0037 8.16423 36.0039 8.16407 36.0041 8.1639C36.275 7.94585 36.6702 8.14591 36.6702 8.48829L36.6702 8.48878L36.6389 14.7969L34.2547 9.53035ZM25.7769 26.78L25.7773 26.7803C25.9606 26.9127 26.2189 26.8787 26.3542 26.6916C26.3543 26.6915 26.3543 26.6914 26.3544 26.6914L27.4712 25.1685L27.4713 25.1683C27.6081 24.9808 27.5701 24.7217 27.382 24.5903C27.3817 24.5901 27.3814 24.5899 27.3811 24.5897L21.8538 20.5934L21.8538 10.9766C21.8538 10.7495 21.6684 10.5641 21.4413 10.5641L19.5624 10.5641C19.3353 10.5641 19.1499 10.7495 19.1499 10.9766L19.1499 21.7305C19.1499 21.8631 19.2113 21.9874 19.3202 22.0654C19.3204 22.0655 19.3205 22.0656 19.3207 22.0658L25.7769 26.78Z" fill="#1C4980" stroke="#1C4980" stroke-width="0.2"/>
</svg>
