<svg width="40" height="40" viewBox="0 0 40 40" fill="none" xmlns="http://www.w3.org/2000/svg">
<path d="M8.33333 36.6663C7.41667 36.6663 6.63167 36.3402 5.97833 35.688C5.32611 35.0347 5 34.2497 5 33.333V9.99967C5 9.08301 5.32611 8.29856 5.97833 7.64634C6.63167 6.99301 7.41667 6.66634 8.33333 6.66634H10V4.95801C10 4.48579 10.1594 4.0969 10.4783 3.79134C10.7983 3.48579 11.1944 3.33301 11.6667 3.33301C12.1389 3.33301 12.535 3.49245 12.855 3.81134C13.1739 4.13134 13.3333 4.52745 13.3333 4.99967V6.66634H26.6667V4.95801C26.6667 4.48579 26.8267 4.0969 27.1467 3.79134C27.4656 3.48579 27.8611 3.33301 28.3333 3.33301C28.8056 3.33301 29.2011 3.49245 29.52 3.81134C29.84 4.13134 30 4.52745 30 4.99967V6.66634H31.6667C32.5833 6.66634 33.3683 6.99301 34.0217 7.64634C34.6739 8.29856 35 9.08301 35 9.99967V33.333C35 34.2497 34.6739 35.0347 34.0217 35.688C33.3683 36.3402 32.5833 36.6663 31.6667 36.6663H8.33333ZM8.33333 33.333H31.6667V16.6663H8.33333V33.333Z" fill="#1C4980"/>
<path fill-rule="evenodd" clip-rule="evenodd" d="M24.2237 23.6408C24.4492 23.7936 24.6338 23.9992 24.7614 24.2398C24.889 24.4803 24.9558 24.7485 24.9558 25.0208C24.9558 25.2932 24.889 25.5614 24.7614 25.8019C24.6338 26.0425 24.4492 26.2481 24.2237 26.4008L19.267 29.7558C19.0163 29.9253 18.7241 30.0233 18.4219 30.0394C18.1197 30.0554 17.8188 29.9888 17.5515 29.8468C17.2843 29.7048 17.0608 29.4927 16.9049 29.2332C16.7491 28.9738 16.6668 28.6768 16.667 28.3742V21.6675C16.6668 21.3649 16.7491 21.0679 16.9049 20.8085C17.0608 20.549 17.2843 20.3369 17.5515 20.1949C17.8188 20.0529 18.1197 19.9863 18.4219 20.0023C18.7241 20.0184 19.0163 20.1164 19.267 20.2858L24.2237 23.6408Z" fill="#1C4980"/>
</svg>
