<svg width="32" height="32" viewBox="0 0 32 32" fill="none" xmlns="http://www.w3.org/2000/svg">
<path fill-rule="evenodd" clip-rule="evenodd" d="M16.0003 5.33317C12.3184 5.33317 9.33366 8.31794 9.33366 11.9998C9.33366 15.717 11.4826 21.1562 16.0003 26.0736C20.5181 21.1562 22.667 15.717 22.667 11.9998C22.667 8.31794 19.6822 5.33317 16.0003 5.33317ZM6.66699 11.9998C6.66699 6.84518 10.8457 2.6665 16.0003 2.6665C21.155 2.6665 25.3337 6.84518 25.3337 11.9998C25.3337 16.8694 22.4477 23.438 16.9431 28.9426C16.4224 29.4633 15.5782 29.4633 15.0575 28.9426C9.55292 23.438 6.66699 16.8694 6.66699 11.9998Z" fill="#062639"/>
<path fill-rule="evenodd" clip-rule="evenodd" d="M16.0003 13.3332C16.7367 13.3332 17.3337 12.7362 17.3337 11.9998C17.3337 11.2635 16.7367 10.6665 16.0003 10.6665C15.2639 10.6665 14.667 11.2635 14.667 11.9998C14.667 12.7362 15.2639 13.3332 16.0003 13.3332ZM16.0003 15.9998C18.2095 15.9998 20.0003 14.209 20.0003 11.9998C20.0003 9.7907 18.2095 7.99984 16.0003 7.99984C13.7912 7.99984 12.0003 9.7907 12.0003 11.9998C12.0003 14.209 13.7912 15.9998 16.0003 15.9998Z" fill="#062639"/>
</svg>
