<svg width="32" height="32" viewBox="0 0 32 32" fill="none" xmlns="http://www.w3.org/2000/svg">
<path fill-rule="evenodd" clip-rule="evenodd" d="M6.66699 5.3335C4.45785 5.3335 2.66699 7.12436 2.66699 9.3335V22.6668C2.66699 24.876 4.45785 26.6668 6.66699 26.6668H25.3337C27.5428 26.6668 29.3337 24.876 29.3337 22.6668V9.3335C29.3337 7.12436 27.5428 5.3335 25.3337 5.3335H6.66699ZM6.43435 8.02039C6.50989 8.0071 6.58763 8.00016 6.66699 8.00016H25.3337C25.413 8.00016 25.4908 8.0071 25.5663 8.02039L16.0003 14.3977L6.43435 8.02039ZM5.33366 10.4915V22.6668C5.33366 23.4032 5.93061 24.0002 6.66699 24.0002H25.3337C26.07 24.0002 26.667 23.4032 26.667 22.6668V10.4916L16.7399 17.1096C16.2921 17.4082 15.7086 17.4082 15.2607 17.1096L5.33366 10.4915Z" fill="#062639"/>
</svg>
